<svg width="21" height="16" viewBox="0 0 21 16" fill="none" xmlns="http://www.w3.org/2000/svg">
<g id="Group 173">
<path id="Vector" d="M0.958984 2.87891C0.958984 2.21587 1.22165 1.57998 1.68919 1.11114C2.15674 0.642298 2.79087 0.378906 3.45208 0.378906H18.4106C19.0719 0.378906 19.706 0.642298 20.1735 1.11114C20.6411 1.57998 20.9037 2.21587 20.9037 2.87891V12.8789C20.9037 13.5419 20.6411 14.1778 20.1735 14.6467C19.706 15.1155 19.0719 15.3789 18.4106 15.3789H3.45208C2.79087 15.3789 2.15674 15.1155 1.68919 14.6467C1.22165 14.1778 0.958984 13.5419 0.958984 12.8789V2.87891ZM3.45208 1.62891C3.12147 1.62891 2.80441 1.7606 2.57064 1.99502C2.33686 2.22944 2.20553 2.54739 2.20553 2.87891V4.12891H19.6572V2.87891C19.6572 2.54739 19.5259 2.22944 19.2921 1.99502C19.0583 1.7606 18.7412 1.62891 18.4106 1.62891H3.45208ZM19.6572 6.62891H2.20553V12.8789C2.20553 13.2104 2.33686 13.5284 2.57064 13.7628C2.80441 13.9972 3.12147 14.1289 3.45208 14.1289H18.4106C18.7412 14.1289 19.0583 13.9972 19.2921 13.7628C19.5259 13.5284 19.6572 13.2104 19.6572 12.8789V6.62891Z" fill="black"/>
<path id="Vector_2" d="M3.45215 10.3789C3.45215 10.0474 3.58348 9.72944 3.81725 9.49502C4.05103 9.2606 4.36809 9.12891 4.6987 9.12891H5.94524C6.27585 9.12891 6.59291 9.2606 6.82668 9.49502C7.06046 9.72944 7.19179 10.0474 7.19179 10.3789V11.6289C7.19179 11.9604 7.06046 12.2784 6.82668 12.5128C6.59291 12.7472 6.27585 12.8789 5.94524 12.8789H4.6987C4.36809 12.8789 4.05103 12.7472 3.81725 12.5128C3.58348 12.2784 3.45215 11.9604 3.45215 11.6289V10.3789Z" fill="black"/>
</g>
</svg>
