<svg width="50" height="44" viewBox="0 0 50 44" fill="none" xmlns="http://www.w3.org/2000/svg">
<path id="Vector" d="M27.9913 1.77318C27.6828 1.23431 27.238 0.786613 26.7017 0.475279C26.1655 0.163944 25.5568 0 24.9372 0C24.3176 0 23.7089 0.163944 23.1727 0.475279C22.6365 0.786613 22.1917 1.23431 21.8832 1.77318L0.514248 38.2326C-0.909932 40.6638 0.797837 43.7544 3.56829 43.7544H46.303C49.0735 43.7544 50.7844 40.6607 49.3571 38.2326L27.9913 1.77318ZM24.931 12.5044C26.5982 12.5044 27.904 13.9482 27.7357 15.6138L26.645 26.5732C26.6083 27.0037 26.4119 27.4048 26.0945 27.697C25.7771 27.9893 25.3619 28.1515 24.931 28.1515C24.5001 28.1515 24.0849 27.9893 23.7675 27.697C23.4501 27.4048 23.2536 27.0037 23.217 26.5732L22.1263 15.6138C22.0871 15.2208 22.1304 14.8239 22.2535 14.4487C22.3766 14.0735 22.5767 13.7283 22.841 13.4354C23.1052 13.1425 23.4277 12.9083 23.7877 12.748C24.1476 12.5876 24.5371 12.5047 24.931 12.5044ZM24.9372 31.2544C25.7637 31.2544 26.5564 31.5837 27.1408 32.1697C27.7253 32.7558 28.0536 33.5506 28.0536 34.3794C28.0536 35.2082 27.7253 36.0031 27.1408 36.5891C26.5564 37.1752 25.7637 37.5044 24.9372 37.5044C24.1107 37.5044 23.318 37.1752 22.7336 36.5891C22.1492 36.0031 21.8209 35.2082 21.8209 34.3794C21.8209 33.5506 22.1492 32.7558 22.7336 32.1697C23.318 31.5837 24.1107 31.2544 24.9372 31.2544Z" fill="#E82222"/>
</svg>
