<svg width="18" height="18" viewBox="0 0 18 18" fill="none" xmlns="http://www.w3.org/2000/svg">
<path id="Vector" d="M8.93166 0.753906C4.46403 0.753906 0.829102 4.39891 0.829102 8.87891C0.829102 13.3589 4.46403 17.0039 8.93166 17.0039C13.3993 17.0039 17.0342 13.3589 17.0342 8.87891C17.0342 4.39891 13.3993 0.753906 8.93166 0.753906ZM8.93166 2.00391C12.7255 2.00391 15.7877 5.07453 15.7877 8.87891C15.7877 12.6833 12.7255 15.7539 8.93166 15.7539C5.13779 15.7539 2.07565 12.6833 2.07565 8.87891C2.07565 5.07453 5.13779 2.00391 8.93166 2.00391ZM8.4829 4.87516L4.93959 8.42891L4.49083 8.87891L4.93959 9.32891L8.48415 12.8827L9.38041 12.0039L6.88732 9.50391H13.2946V8.25391H6.88732L9.38041 5.75391L8.4829 4.87516Z" fill="black"/>
</svg>
