<svg width="18" height="18" viewBox="0 0 18 18" fill="none" xmlns="http://www.w3.org/2000/svg">
<g id="Group">
<path id="Vector" d="M1.45215 3.04557C1.45215 2.60355 1.62726 2.17962 1.93896 1.86706C2.25065 1.5545 2.6734 1.37891 3.11421 1.37891H14.7486C15.1895 1.37891 15.6122 1.5545 15.9239 1.86706C16.2356 2.17962 16.4107 2.60355 16.4107 3.04557V14.7122C16.4107 15.1543 16.2356 15.5782 15.9239 15.8908C15.6122 16.2033 15.1895 16.3789 14.7486 16.3789H3.11421C2.6734 16.3789 2.25065 16.2033 1.93896 15.8908C1.62726 15.5782 1.45215 15.1543 1.45215 14.7122V3.04557Z" stroke="black" stroke-width="2" stroke-linecap="round" stroke-linejoin="round"/>
<path id="Vector_2" d="M6.43848 12.2126V5.5459H9.7626C10.2034 5.5459 10.6262 5.72149 10.9379 6.03405C11.2496 6.34661 11.4247 6.77054 11.4247 7.21257C11.4247 7.65459 11.2496 8.07852 10.9379 8.39108C10.6262 8.70364 10.2034 8.87923 9.7626 8.87923H6.43848" stroke="black" stroke-width="2" stroke-linecap="round" stroke-linejoin="round"/>
</g>
</svg>
