<svg width="21" height="21" viewBox="0 0 21 21" fill="none" xmlns="http://www.w3.org/2000/svg">
<g id="Group">
<path id="Vector" d="M10.9314 2.5459C15.5212 2.5459 19.2417 6.27673 19.2417 10.8792C19.2417 15.4817 15.5212 19.2126 10.9314 19.2126C6.34162 19.2126 2.62109 15.4817 2.62109 10.8792C2.62109 6.27673 6.34162 2.5459 10.9314 2.5459ZM10.9314 5.87923C10.711 5.87923 10.4996 5.96703 10.3438 6.12331C10.1879 6.27959 10.1004 6.49155 10.1004 6.71256V10.8792C10.1004 11.1002 10.188 11.3122 10.3439 11.4684L12.837 13.9684C12.9937 14.1202 13.2036 14.2042 13.4215 14.2023C13.6394 14.2004 13.8478 14.1128 14.0019 13.9582C14.156 13.8037 14.2434 13.5947 14.2453 13.3762C14.2472 13.1577 14.1634 12.9472 14.012 12.7901L11.7624 10.5342V6.71256C11.7624 6.49155 11.6749 6.27959 11.519 6.12331C11.3632 5.96703 11.1518 5.87923 10.9314 5.87923Z" fill="black"/>
</g>
</svg>
